# xmcd
#
# Track frame offsets:
#	150
#	3595
#	22723
#	42164
#	61905
#	81799
#	102583
#	122189
#	139993
#	154556
#	172330
#	195888
#	220513
#	225956
#	244798
#
# Disc length: 3544 seconds
#
# Revision: 1
# Processed by: cddbd v1.4b42PL1 Copyright (c) Steve Scherf et al.
# Submitted via: audiograbber 1.80
#
DISCID=b90dd60f
DTITLE=Lil Mo - Based On A True Story
DYEAR=1900
DGENRE=
TTITLE0=Intro
TTITLE1=My Story
TTITLE2=Supa Star
TTITLE3=Superwoman Pt II
TTITLE4=Player Not The Game
TTITLE5=How Many Times
TTITLE6=2moro
TTITLE7=Friends (Those Girls)
TTITLE8=Gangsta
TTITLE9=Saturday
TTITLE10=She Cood Neva B Me
TTITLE11=Time After Time
TTITLE12=Outro
TTITLE13=I Ain't Gotta
TTITLE14=Ta Da
EXTD=
EXTT0=
EXTT1=
EXTT2=
EXTT3=
EXTT4=
EXTT5=
EXTT6=
EXTT7=
EXTT8=
EXTT9=
EXTT10=
EXTT11=
EXTT12=
EXTT13=
EXTT14=
PLAYORDER=
